<svg id="svg6" xmlns="http://www.w3.org/2000/svg" xmlns:xlink="http://www.w3.org/1999/xlink" viewBox="0 0 6.9 8.52"><defs><style>.cls-1{fill:#244442;}.cls-2{fill:url(#Unbenannter_Verlauf);}</style><linearGradient id="Unbenannter_Verlauf" x1="9" y1="-2980.29" x2="9" y2="-2986.53" gradientTransform="matrix(1, 0, 0, -1, -5.49, -2980.09)" gradientUnits="userSpaceOnUse"><stop offset="0" stop-color="#fff"/><stop offset="0.15" stop-color="#f9f9f9"/><stop offset="0.36" stop-color="#e7e7e7"/><stop offset="0.61" stop-color="#cacaca"/><stop offset="0.87" stop-color="#a2a2a2"/><stop offset="1" stop-color="#8c8c8c"/></linearGradient></defs><title>skill-medal_lvl1</title><path class="cls-1" d="M5.2,8.4,3.8,7.6a.85.85,0,0,0-.7,0l-1.3.8c-.5.3-.9,0-.9-.4V5.7c0-.2.1-.4.3-.4H5.8a.45.45,0,0,1,.3.4V8C6.1,8.1,5.7,8.7,5.2,8.4Z" transform="translate(0 0)"/><ellipse class="cls-2" cx="3.51" cy="3.31" rx="3.3" ry="3.1"/><path id="Outline" class="cls-1" d="M3.5,0A3.44,3.44,0,0,0,0,3.3,3.38,3.38,0,0,0,3.46,6.6h0A3.29,3.29,0,0,0,6.9,3.42V3.3A3.35,3.35,0,0,0,3.5,0Zm0,6.2A2.92,2.92,0,0,1,.4,3.47V3.4A2.87,2.87,0,0,1,3,.31H3.5A2.92,2.92,0,0,1,6.6,3V3.1A2.87,2.87,0,0,1,4,6.19H3.5Z" transform="translate(0 0)"/></svg>