<svg id="Ebene_2" data-name="Ebene 2" xmlns="http://www.w3.org/2000/svg" xmlns:xlink="http://www.w3.org/1999/xlink" viewBox="0 0 6.9 8.52"><defs><style>.cls-1{fill:#244442;}.cls-2{fill:url(#Unbenannter_Verlauf);}</style><linearGradient id="Unbenannter_Verlauf" x1="6.74" y1="-2969.14" x2="11.28" y2="-2973.68" gradientTransform="matrix(1, 0, 0, -1, -5.5, -2968.1)" gradientUnits="userSpaceOnUse"><stop offset="0" stop-color="#b38728"/><stop offset="0.23" stop-color="#bf953f"/><stop offset="0.27" stop-color="#c29a45"/><stop offset="0.33" stop-color="#cba857"/><stop offset="0.39" stop-color="#d9bf74"/><stop offset="0.47" stop-color="#eddf9d"/><stop offset="0.51" stop-color="#fcf6ba"/><stop offset="0.59" stop-color="#fcf6ba"/><stop offset="0.7" stop-color="#e3cf8a"/><stop offset="0.84" stop-color="#c4a04f"/><stop offset="0.94" stop-color="#b1822a"/><stop offset="1" stop-color="#aa771c"/></linearGradient></defs><title>skill-medal_lvl4</title><g id="Medallie"><path class="cls-1" d="M10.7,20.5l-1.4-.8a.85.85,0,0,0-.7,0l-1.3.8c-.5.3-.9,0-.9-.4V17.8c0-.2.1-.4.3-.4h4.6a.45.45,0,0,1,.3.4v2.3C11.6,20.2,11.2,20.8,10.7,20.5Z" transform="translate(-5.5 -12.1)"/><ellipse class="cls-2" cx="3.5" cy="3.3" rx="3.3" ry="3.1"/><path id="Outline" class="cls-1" d="M9,12.1a3.44,3.44,0,0,0-3.5,3.3A3.38,3.38,0,0,0,9,18.7a3.29,3.29,0,0,0,3.4-3.3A3.35,3.35,0,0,0,9,12.1Zm0,6.2a2.92,2.92,0,0,1-3.1-2.8,2.87,2.87,0,0,1,2.8-3.1H9a2.92,2.92,0,0,1,3.1,2.8,2.87,2.87,0,0,1-2.8,3.1Z" transform="translate(-5.5 -12.1)"/></g></svg>