<svg id="Ebene_1" data-name="Ebene 1" xmlns="http://www.w3.org/2000/svg" viewBox="0 0 192.58 31.88"><defs><style>.cls-1{opacity:0.48;}.cls-2{fill:#a1d182;}.cls-3{fill:#366;}.cls-4{fill:none;stroke:#366;stroke-miterlimit:10;stroke-width:4px;}</style></defs><title>collect_skills_activity_done</title><g id="Green-Task"><path id="Task-Schatten" class="cls-1" d="M8,2.63H186.71a5.87,5.87,0,0,1,5.87,5.87V26a5.88,5.88,0,0,1-5.87,5.88H8A5.88,5.88,0,0,1,2.08,26V8.5A5.88,5.88,0,0,1,8,2.63Z"/><rect class="cls-2" width="190.5" height="29.25" rx="5.88" ry="5.88"/><rect class="cls-3" x="45.33" y="5.33" width="130.83" height="6.33" rx="2.27" ry="2.27"/><rect class="cls-3" x="45.33" y="14.67" width="110.5" height="6.33" rx="2.08" ry="2.08"/><rect class="cls-4" x="5.69" y="4.94" width="19.38" height="19.38" rx="4.8" ry="4.8"/><path class="cls-3" d="M29.78,108.48,33.1,112a1,1,0,0,0,1.46,0l8.74-9.8a1,1,0,0,0-.13-1.45l-.64-.5a1,1,0,0,0-1.35.13l-7,7.85a.45.45,0,0,1-.68,0L32,106.46a1,1,0,0,0-1.4-.1l-.78.68A1,1,0,0,0,29.78,108.48Z" transform="translate(-21.15 -91.51)"/></g></svg>