<svg id="Ebene_1" data-name="Ebene 1" xmlns="http://www.w3.org/2000/svg" viewBox="0 0 458.68 202.83"><defs><style>.cls-1{opacity:0.35;}.cls-2{fill:#4c311e;}.cls-3{fill:#6d472b;}.cls-4{fill:#382416;}.cls-5{fill:#a59b95;}.cls-6{fill:#543622;}.cls-7{opacity:0.48;}.cls-8{fill:#fffb71;}.cls-11,.cls-9{fill:#366;}.cls-10{fill:none;stroke-width:4px;}.cls-10,.cls-11{stroke:#366;stroke-miterlimit:10;}.cls-11{font-size:18px;stroke-width:0.5px;font-family:ArialRoundedMTBold, Arial Rounded MT Bold;}.cls-12{fill:#a1d182;}.cls-13{fill:#e2e2e2;}.cls-14{fill:#aaa9a9;}.cls-15{fill:#dbdbdb;}</style></defs><title>CollectSkills_Logo_E1</title><g id="Kiste-Back"><rect id="Kiste-Schatten" class="cls-1" x="254.49" y="170.67" width="161.38" height="32.17" rx="6.38" ry="6.38"/><path id="Deckel-Innen" class="cls-2" d="M403.81,118.11H297.2a8.92,8.92,0,0,1-8.81-7.48L276.93,63.07l152.36.81-16.88,47.73A8.93,8.93,0,0,1,403.81,118.11Z" transform="translate(-17.44 -30.55)"/><path id="Deckel-oben" class="cls-3" d="M424.15,70.15H281.69a5.13,5.13,0,0,1-4-8.38l9.69-11.85a7.39,7.39,0,0,1,5.71-2.71H414.86a7.37,7.37,0,0,1,6.22,3.42l7.4,11.63A5.13,5.13,0,0,1,424.15,70.15Z" transform="translate(-17.44 -30.55)"/><path id="Inside" class="cls-2" d="M428.9,163h-157l20-36.51a8.45,8.45,0,0,1,7.59-5H402.08a8.48,8.48,0,0,1,7.67,5.14Z" transform="translate(-17.44 -30.55)"/><polygon id="Deckel-Innen-2" class="cls-4" points="376.14 48.17 286.87 48.17 273.02 39.67 393.07 39.67 376.14 48.17"/><rect id="Lock" class="cls-5" x="319.06" y="32.52" width="29.19" height="22.15" rx="3.82" ry="3.82"/><rect id="Front" class="cls-3" x="254.49" y="126.68" width="156.97" height="72.98" rx="5.62" ry="5.62"/><rect id="Front-Striemen-1" class="cls-6" x="254.93" y="146.17" width="156.2" height="8.5"/><rect id="Front-Striemen-2" class="cls-6" x="255.4" y="172.67" width="156.2" height="8"/><rect id="Schanier-Links" class="cls-5" x="283.7" y="85.83" width="27.17" height="7.33" rx="2.67" ry="2.67"/><rect id="Schanier-Rechts" class="cls-5" x="354.04" y="85.83" width="27.17" height="7.33" rx="2.67" ry="2.67"/></g><g id="Yellow-Task"><rect id="Task-Schatten" class="cls-7" x="225.48" y="140.32" width="190.5" height="29.25" rx="5.87" ry="5.87" transform="translate(138.61 -191.44) rotate(36.68)"/><rect class="cls-8" x="225.28" y="137.1" width="190.5" height="29.25" rx="5.87" ry="5.87" transform="translate(136.65 -191.96) rotate(36.68)"/><rect class="cls-9" x="271.2" y="152.91" width="130.83" height="6.33" rx="2.27" ry="2.27" transform="translate(142.43 -200.71) rotate(36.68)"/><rect class="cls-9" x="267.64" y="154.32" width="110.5" height="6.33" rx="2.08" ry="2.08" transform="translate(140.56 -192.23) rotate(36.68)"/><rect class="cls-10" x="246.78" y="94.34" width="19.37" height="19.38" rx="4.8" ry="4.8" transform="matrix(0.8, 0.6, -0.6, 0.8, 95.47, -163.14)"/><text class="cls-11" transform="matrix(0.8, 0.6, -0.6, 0.8, 230.89, 75.55)">1</text></g><g id="Green-Task"><path id="Task-Schatten-2" class="cls-7" d="M220.11,150.07H398.86a5.88,5.88,0,0,1,5.88,5.88v17.5a5.87,5.87,0,0,1-5.87,5.87H220.11a5.87,5.87,0,0,1-5.87-5.87v-17.5a5.87,5.87,0,0,1,5.87-5.87Z" transform="translate(120.34 -171.5) rotate(32.65)"/><path class="cls-12" d="M219.78,146.74H398.53a5.88,5.88,0,0,1,5.88,5.88v17.5a5.87,5.87,0,0,1-5.87,5.87H219.78a5.87,5.87,0,0,1-5.87-5.87v-17.5a5.87,5.87,0,0,1,5.87-5.87Z" transform="translate(118.49 -171.85) rotate(32.65)"/><rect class="cls-9" x="260.09" y="161.4" width="130.83" height="6.33" rx="2.27" ry="2.27" transform="translate(122.8 -180.17) rotate(32.65)"/><rect class="cls-9" x="256.66" y="163.77" width="110.5" height="6.33" rx="2.08" ry="2.08" transform="translate(121.93 -172.46) rotate(32.65)"/><rect class="cls-10" x="232.22" y="108.58" width="19.38" height="19.37" rx="4.8" ry="4.8" transform="translate(84.61 -142.38) rotate(32.65)"/><path class="cls-9" d="M235,116.6l.91,4.73a1,1,0,0,0,1.24.77l12.65-3.54a1,1,0,0,0,.67-1.29l-.27-.76a1,1,0,0,0-1.2-.63l-10.13,2.84a.46.46,0,0,1-.57-.37l-.32-2.23a1,1,0,0,0-1.12-.84l-1,.15A1,1,0,0,0,235,116.6Z" transform="translate(-17.44 -30.55)"/></g><g id="White-Task"><rect id="Task-Schatten-3" class="cls-7" x="300.01" y="143.07" width="190.5" height="29.25" rx="5.87" ry="5.87" transform="translate(-28.65 253.14) rotate(-38.97)"/><rect class="cls-13" x="296.59" y="142.15" width="190.5" height="29.25" rx="5.87" ry="5.87" transform="translate(-28.84 250.78) rotate(-38.97)"/><rect class="cls-9" x="334.62" y="139.09" width="130.83" height="6.33" rx="2.27" ry="2.27" transform="translate(-17.89 252.71) rotate(-38.97)"/><rect class="cls-9" x="342.75" y="152.75" width="110.5" height="6.33" rx="2.08" ry="2.08" transform="translate(-26.92 254.46) rotate(-38.97)"/><rect class="cls-10" x="320.06" y="197.32" width="19.38" height="19.37" rx="4.8" ry="4.8" transform="translate(-74.25 222.9) rotate(-38.97)"/></g><g id="Kiste-Front"><path id="Deckel-oben-2" class="cls-3" d="M424.15,70.15H281.69a5.13,5.13,0,0,1-4-8.38l9.69-11.85a7.39,7.39,0,0,1,5.71-2.71H414.86a7.37,7.37,0,0,1,6.22,3.42l7.4,11.63A5.13,5.13,0,0,1,424.15,70.15Z" transform="translate(-17.44 -30.55)"/><rect id="Lock-2" class="cls-5" x="319.06" y="32.52" width="29.19" height="22.15" rx="3.82" ry="3.82"/><rect id="Front-2" class="cls-3" x="254.49" y="126.68" width="156.97" height="72.98" rx="5.62" ry="5.62"/><rect id="Front-Striemen-1-2" class="cls-6" x="254.93" y="146.17" width="156.2" height="8.5"/><rect id="Front-Striemen-2-2" class="cls-6" x="255.4" y="172.67" width="156.2" height="8"/></g><rect id="Task-Schatten-4" class="cls-7" x="5.79" y="173.58" width="190.5" height="29.25" rx="5.88" ry="5.88"/><g id="Grey-Task"><path class="cls-14" d="M9.58,171.58H188.33a5.88,5.88,0,0,1,5.88,5.88V195a5.88,5.88,0,0,1-5.87,5.88H9.58A5.87,5.87,0,0,1,3.71,195v-17.5a5.88,5.88,0,0,1,5.88-5.87Z"/><rect class="cls-9" x="49.04" y="176.92" width="130.83" height="6.33" rx="2.27" ry="2.27"/><rect class="cls-9" x="49.04" y="186.25" width="110.5" height="6.33" rx="2.08" ry="2.08"/><rect class="cls-10" x="9.4" y="176.52" width="19.38" height="19.38" rx="4.8" ry="4.8"/><path class="cls-9" d="M42.31,215H38.66a.38.38,0,0,1-.38-.37V211a1,1,0,0,0-1-1H35.81a1,1,0,0,0-1,1v3.66a.37.37,0,0,1-.37.37H30.74a1,1,0,0,0-1,1v1.43a1,1,0,0,0,1,1H34.4a.37.37,0,0,1,.37.37v3.66a1,1,0,0,0,1,1h1.43a1,1,0,0,0,1-1v-3.66a.38.38,0,0,1,.38-.37h3.65a1,1,0,0,0,1-1V216A1,1,0,0,0,42.31,215Z" transform="translate(-17.44 -30.55)"/></g><g id="Green-Task-2" ><path id="Task-Schatten-5" class="cls-7" d="M11.67,63.58H190.42a5.87,5.87,0,0,1,5.87,5.87V87a5.88,5.88,0,0,1-5.87,5.88H11.67A5.88,5.88,0,0,1,5.79,87V69.46A5.88,5.88,0,0,1,11.67,63.58Z"/><rect class="cls-12" x="3.71" y="60.96" width="190.5" height="29.25" rx="5.88" ry="5.88"/><rect class="cls-9" x="49.04" y="66.29" width="130.83" height="6.33" rx="2.27" ry="2.27"/><rect class="cls-9" x="49.04" y="75.63" width="110.5" height="6.33" rx="2.08" ry="2.08"/><rect class="cls-10" x="9.4" y="65.9" width="19.38" height="19.38" rx="4.8" ry="4.8"/><path class="cls-9" d="M29.78,108.48,33.1,112a1,1,0,0,0,1.46,0l8.74-9.8a1,1,0,0,0-.13-1.45l-.64-.5a1,1,0,0,0-1.35.13l-7,7.85a.45.45,0,0,1-.68,0L32,106.46a1,1,0,0,0-1.4-.1l-.78.68A1,1,0,0,0,29.78,108.48Z" transform="translate(-17.44 -30.55)"/></g><g id="White-Task-2" ><rect id="Task-Schatten-6" class="cls-7" x="5.79" y="100.7" width="190.5" height="29.25" rx="5.88" ry="5.88"/><path class="cls-13" d="M9.58,97.83H188.33a5.88,5.88,0,0,1,5.88,5.88v17.5a5.88,5.88,0,0,1-5.87,5.88H9.58a5.87,5.87,0,0,1-5.87-5.87v-17.5a5.88,5.88,0,0,1,5.88-5.87Z"/><rect class="cls-9" x="49.04" y="103.17" width="130.83" height="6.33" rx="2.27" ry="2.27"/><rect class="cls-9" x="49.04" y="112.5" width="110.5" height="6.33" rx="2.08" ry="2.08"/><rect class="cls-10" x="9.4" y="102.77" width="19.38" height="19.37" rx="4.8" ry="4.8"/></g><g id="Yellow-Task-2" ><rect id="Task-Schatten-7" class="cls-7" x="5.79" y="137.17" width="190.5" height="29.25" rx="5.88" ry="5.88"/><path class="cls-8" d="M9.58,134.71H188.33a5.88,5.88,0,0,1,5.88,5.88v17.5a5.88,5.88,0,0,1-5.87,5.88H9.58a5.87,5.87,0,0,1-5.87-5.87v-17.5a5.88,5.88,0,0,1,5.88-5.87Z"/><rect class="cls-9" x="49.04" y="140.04" width="130.83" height="6.33" rx="2.27" ry="2.27"/><rect class="cls-9" x="49.04" y="149.38" width="110.5" height="6.33" rx="2.08" ry="2.08"/><rect class="cls-10" x="9.4" y="139.65" width="19.38" height="19.38" rx="4.8" ry="4.8"/><text class="cls-11" transform="translate(13.74 155.89)">1</text></g><g id="Überschrift"><rect class="cls-9" width="197.92" height="51.25" rx="9.71" ry="9.71"/><rect class="cls-15" x="4.17" y="3.67" width="189.5" height="43.5" rx="8.75" ry="8.75"/><rect class="cls-9" x="16.83" y="14.25" width="118.5" height="22.33" rx="5.33" ry="5.33"/><circle class="cls-9" cx="169.5" cy="25.42" r="14"/></g></svg>