<svg id="Ebene_1" data-name="Ebene 1" xmlns="http://www.w3.org/2000/svg" viewBox="0 0 106 106"><defs><style>.cls-1{fill:#336;}.cls-2{fill:#ccc;}.cls-3{fill:aqua;}</style></defs><title>save_icon</title><path class="cls-1" d="M342.67,183H255.33a9.33,9.33,0,0,1-9.33-9.33V86.33A9.33,9.33,0,0,1,255.33,77H328c7.83,0,24,16.33,24,24.5v72.17A9.33,9.33,0,0,1,342.67,183Z" transform="translate(-246 -77)"/><path class="cls-2" d="M314.83,77v31.17H296.17V77H271v32a5.17,5.17,0,0,0,5.17,5.17h45.66A5.17,5.17,0,0,0,327,109V77Z" transform="translate(-246 -77)"/><path class="cls-3" d="M23.75,49.83H81.58a5.58,5.58,0,0,1,5.58,5.58V62.5a0,0,0,0,1,0,0h-69a0,0,0,0,1,0,0V55.42A5.58,5.58,0,0,1,23.75,49.83Z"/><path class="cls-2" d="M264.17,139.5V183h69V139.5Zm53.16,31.67H281a3.34,3.34,0,0,1,0-6.67h36.33a3.34,3.34,0,1,1,0,6.67Zm0-12.67H281a3.34,3.34,0,0,1,0-6.67h36.33a3.34,3.34,0,1,1,0,6.67Z" transform="translate(-246 -77)"/></svg>