<svg id="Ebene_1" data-name="Ebene 1" xmlns="http://www.w3.org/2000/svg" viewBox="0 0 469.7 539"><defs><style>.cls-1,.cls-4{fill:#6d472b;}.cls-1{stroke:#543622;stroke-width:18px;}.cls-1,.cls-7,.cls-9{stroke-miterlimit:10;}.cls-2{opacity:0.35;}.cls-3{fill:#4c311e;}.cls-5{fill:#382416;}.cls-10,.cls-11,.cls-6{fill:#fff;}.cls-6{opacity:0.25;}.cls-7{fill:#a59b95;stroke:#606060;stroke-width:6px;}.cls-8{fill:#543622;}.cls-9{fill:none;stroke:#382416;stroke-width:8px;}.cls-10{opacity:0.61;}.cls-11{opacity:0.19;}</style></defs><title>chest</title><g id="Kiste-Kontur"><path class="cls-1" d="M517.36,217.34H517a15,15,0,0,0-1.94-4.61L494,179.62a21,21,0,0,0-17.73-9.73H129.69a21,21,0,0,0-16.26,7.71L85.84,211.32A15.05,15.05,0,0,0,83.6,215h0a14.71,14.71,0,0,0,4,16.66l28.59,118.76a25.45,25.45,0,0,0,25.11,21.29H444.81a25.44,25.44,0,0,0,24.48-18.51l43-121.6A14.75,14.75,0,0,0,517.13,218Z" transform="translate(-60.37 -160.89)"/><path class="cls-1" d="M508.89,485.65l-47.17-89.49c-4-9-12.51-14.65-21.84-14.65H147.93a24.05,24.05,0,0,0-21.6,14.15L77.16,485.39a16,16,0,0,0-7.79,13.72V674.87a16,16,0,0,0,16,16H500.23a16,16,0,0,0,16-16V499.11A16,16,0,0,0,508.89,485.65Z" transform="translate(-60.37 -160.89)"/></g><g id="Kiste"><rect id="Kiste-Schatten" class="cls-2" x="9" y="447.42" width="459.44" height="91.58" rx="18.16" ry="18.16"/><path id="Deckel-Innen" class="cls-3" d="M444.81,371.73H141.32a25.45,25.45,0,0,1-25.11-21.29L83.6,215l433.76,2.32L469.29,353.22A25.44,25.44,0,0,1,444.81,371.73Z" transform="translate(-60.37 -160.89)"/><path id="Deckel-oben" class="cls-4" d="M502.73,235.19H97.15a14.61,14.61,0,0,1-11.31-23.87l27.59-33.72a21,21,0,0,1,16.26-7.71H476.26A21,21,0,0,1,494,179.62l21.07,33.11A14.62,14.62,0,0,1,502.73,235.19Z" transform="translate(-60.37 -160.89)"/><path id="Inside" class="cls-3" d="M516.24,499.6H69.37l57-103.94a24.05,24.05,0,0,1,21.6-14.15h292c9.33,0,17.82,5.7,21.84,14.65Z" transform="translate(-60.37 -160.89)"/><polygon id="Deckel-Innen-2" data-name="Deckel-Innen" class="cls-5" points="355.3 98.68 101.18 98.68 61.74 74.48 403.5 74.48 355.3 98.68"/><rect class="cls-6" x="33.74" y="47.67" width="347.22" height="18.31" rx="8.66" ry="8.66"/><rect id="Lock" class="cls-7" x="192.81" y="54.13" width="83.11" height="63.05" rx="10.88" ry="10.88"/><rect id="Front" class="cls-4" x="9" y="322.21" width="446.87" height="207.78" rx="16.01" ry="16.01"/><rect id="Front-Striemen-1" class="cls-8" x="10.23" y="377.68" width="444.68" height="24.2"/><rect id="Front-Striemen-2" class="cls-8" x="11.56" y="453.12" width="444.68" height="22.78"/><rect id="Schanier-Links" class="cls-7" x="92.16" y="205.91" width="77.34" height="20.88" rx="7.59" ry="7.59"/><rect id="Schanier-Rechts" class="cls-7" x="292.39" y="205.91" width="77.34" height="20.88" rx="7.59" ry="7.59"/></g><line class="cls-9" x1="77.58" y1="222.91" x2="77.58" y2="322.21"/><line class="cls-9" x1="383.63" y1="221.5" x2="383.63" y2="322.21"/><path class="cls-10" d="M311,226.26a4.13,4.13,0,0,0-4.12-4.12H269.25a8.25,8.25,0,0,0-8.25,8.25v25.05a4.13,4.13,0,0,0,4.12,4.13h0a4.13,4.13,0,0,0,4.12-4.13V239.18a7.79,7.79,0,0,1,7.79-7.79h29.84a4.13,4.13,0,0,0,4.12-4.13Z" transform="translate(-60.37 -160.89)"/><rect class="cls-10" x="99.38" y="211.25" width="59.75" height="5.1" rx="2.55" ry="2.55"/><rect class="cls-10" x="298.13" y="211.25" width="59.75" height="5.1" rx="2.55" ry="2.55"/><path class="cls-11" d="M387.48,507.3a14.87,14.87,0,0,0-14.87-14.87H93.45c-6.92,0-12.52,4.13-12.52,9.22V604.79c0,5.09,5.6,9.22,12.52,9.22h0c6.91,0,12.52-4.13,12.52-9.22v-73.4c0-5.09,5.61-9.22,12.52-9.22H372.61a14.87,14.87,0,0,0,14.87-14.87Z" transform="translate(-60.37 -160.89)"/></svg>