<svg id="Ebene_1" data-name="Ebene 1" xmlns="http://www.w3.org/2000/svg" xmlns:xlink="http://www.w3.org/1999/xlink" viewBox="0 0 429.08 487.94"><defs><style>.cls-1{fill:url(#Unbenannter_Verlauf_6);}.cls-2{fill:#560404;}.cls-3{fill:url(#Unbenannter_Verlauf_19);}.cls-4{fill:#562d04;}.cls-5{opacity:0.39;}.cls-6{fill:#fff;}.cls-7{opacity:0.15;}</style><linearGradient id="Unbenannter_Verlauf_6" x1="91.76" y1="279.92" x2="504.83" y2="279.92" gradientUnits="userSpaceOnUse"><stop offset="0" stop-color="#be0f18"/><stop offset="1" stop-color="#540a02"/></linearGradient><linearGradient id="Unbenannter_Verlauf_19" x1="137.33" y1="521.22" x2="458.67" y2="521.22" gradientUnits="userSpaceOnUse"><stop offset="0" stop-color="#a55f34"/><stop offset="1" stop-color="#7a3305"/></linearGradient></defs><title>home</title><path class="cls-1" d="M99.06,381.22a7.27,7.27,0,0,1-5-12.55L293,180.61a7.26,7.26,0,0,1,10,0L502.52,368.66a7.27,7.27,0,0,1-5,12.56Z" transform="translate(-83.75 -170.62)"/><path class="cls-2" d="M298,186.89,495.7,373.22H100.89L298,186.89m0-16.27a15.25,15.25,0,0,0-10.49,4.17L88.57,362.85c-10,9.49-3.33,26.37,10.49,26.37H497.53c13.83,0,20.54-16.9,10.48-26.38L308.49,174.78A15.2,15.2,0,0,0,298,170.62Z" transform="translate(-83.75 -170.62)"/><path class="cls-3" d="M367.33,650.56a9.35,9.35,0,0,1-9.33-9.34V584.89a48.38,48.38,0,0,0-48.33-48.33h-24a48.39,48.39,0,0,0-48.34,48.33v56.33a9.34,9.34,0,0,1-9.33,9.34H146.67a9.35,9.35,0,0,1-9.34-9.34v-240a9.35,9.35,0,0,1,9.34-9.33H449.33a9.35,9.35,0,0,1,9.34,9.33v240a9.35,9.35,0,0,1-9.34,9.34Z" transform="translate(-83.75 -170.62)"/><path class="cls-4" d="M449.33,399.89a1.34,1.34,0,0,1,1.34,1.33v240a1.34,1.34,0,0,1-1.34,1.34h-82a1.34,1.34,0,0,1-1.33-1.34V584.89a56.39,56.39,0,0,0-56.33-56.33h-24a56.4,56.4,0,0,0-56.34,56.33v56.33a1.33,1.33,0,0,1-1.33,1.34H146.67a1.34,1.34,0,0,1-1.34-1.34v-240a1.34,1.34,0,0,1,1.34-1.33H449.33m0-16H146.67a17.33,17.33,0,0,0-17.34,17.33v240a17.34,17.34,0,0,0,17.34,17.34H228a17.33,17.33,0,0,0,17.33-17.34V584.89a40.33,40.33,0,0,1,40.34-40.33h24A40.33,40.33,0,0,1,350,584.89v56.33a17.33,17.33,0,0,0,17.33,17.34h82a17.34,17.34,0,0,0,17.34-17.34v-240a17.33,17.33,0,0,0-17.34-17.33Z" transform="translate(-83.75 -170.62)"/><g class="cls-5"><rect class="cls-6" x="118.85" y="272.21" width="202.36" height="22.67" rx="11.33" ry="11.33" transform="translate(-218.05 55.78) rotate(-43.03)"/></g><g class="cls-7"><path class="cls-6" d="M296,402.88H175.68A27.16,27.16,0,0,0,148.52,430V550.36a10,10,0,0,0,10,10h2.67a10,10,0,0,0,10-10V439.56a14,14,0,0,1,14-14H296a10,10,0,0,0,10-10v-2.67A10,10,0,0,0,296,402.88Z" transform="translate(-83.75 -170.62)"/></g></svg>